<svg width="26" height="35" viewBox="0 0 26 35" fill="none" xmlns="http://www.w3.org/2000/svg">
<path d="M25.9229 34.8462H22.6922V31.5641C22.6922 30.2585 22.1816 29.0062 21.2728 28.083C20.3639 27.1597 19.1313 26.6411 17.846 26.6411H8.15371C6.86843 26.6411 5.63579 27.1597 4.72696 28.083C3.81813 29.0062 3.30755 30.2585 3.30755 31.5641V34.8462H0.0767822V31.5641C0.0767822 29.388 0.927741 27.301 2.44246 25.7622C3.95718 24.2235 6.01157 23.359 8.15371 23.359H17.846C19.9881 23.359 22.0425 24.2235 23.5573 25.7622C25.072 27.301 25.9229 29.388 25.9229 31.5641V34.8462ZM12.9999 20.077C11.727 20.077 10.4667 19.8223 9.29077 19.3275C8.11485 18.8326 7.04638 18.1074 6.14636 17.1931C5.24635 16.2788 4.53242 15.1933 4.04533 13.9988C3.55825 12.8042 3.30755 11.5238 3.30755 10.2308C3.30755 8.93778 3.55825 7.65743 4.04533 6.46284C4.53242 5.26825 5.24635 4.18282 6.14636 3.26852C7.04638 2.35422 8.11485 1.62895 9.29077 1.13414C10.4667 0.639322 11.727 0.384644 12.9999 0.384644C15.5704 0.384644 18.0357 1.422 19.8534 3.26852C21.671 5.11503 22.6922 7.61944 22.6922 10.2308C22.6922 12.8422 21.671 15.3466 19.8534 17.1931C18.0357 19.0396 15.5704 20.077 12.9999 20.077ZM12.9999 16.7949C14.7136 16.7949 16.3571 16.1033 17.5689 14.8723C18.7806 13.6413 19.4614 11.9717 19.4614 10.2308C19.4614 8.48989 18.7806 6.82028 17.5689 5.58928C16.3571 4.35827 14.7136 3.6667 12.9999 3.6667C11.2862 3.6667 9.64263 4.35827 8.43086 5.58928C7.21909 6.82028 6.53832 8.48989 6.53832 10.2308C6.53832 11.9717 7.21909 13.6413 8.43086 14.8723C9.64263 16.1033 11.2862 16.7949 12.9999 16.7949Z" fill="white"/>
</svg>
