<svg width="20" height="13" viewBox="0 0 20 13" fill="none" xmlns="http://www.w3.org/2000/svg">
<path d="M7.29702 10.5584C7.19169 11.236 6.82321 11.856 6.25926 12.3045C5.6953 12.7531 4.97374 13 4.22712 13C3.48049 13 2.75893 12.7531 2.19498 12.3045C1.63102 11.856 1.26254 11.236 1.15722 10.5584H0.240234V0.812182C0.240234 0.596778 0.333578 0.390196 0.49973 0.237883C0.665882 0.0855691 0.891233 0 1.12621 0H13.5298C13.7648 0 13.9902 0.0855691 14.1563 0.237883C14.3225 0.390196 14.4158 0.596778 14.4158 0.812182V2.43655H17.0737L19.7317 5.73076V10.5584H17.9287C17.8234 11.236 17.4549 11.856 16.8909 12.3045C16.327 12.7531 15.6054 13 14.8588 13C14.1122 13 13.3906 12.7531 12.8267 12.3045C12.2627 11.856 11.8942 11.236 11.7889 10.5584H7.29702ZM12.6439 1.62436H2.01218V8.16243C2.36175 7.83528 2.79237 7.59039 3.26739 7.44862C3.7424 7.30684 4.24776 7.27236 4.74043 7.34813C5.23311 7.42389 5.69852 7.60766 6.09706 7.88377C6.4956 8.15989 6.81548 8.52019 7.02945 8.934H12.0565C12.2053 8.6473 12.4047 8.38659 12.6439 8.16243V1.62436ZM14.4158 6.49746H17.9597V6.26599L16.1807 4.06091H14.4158V6.49746ZM14.8588 11.3705C15.2114 11.3705 15.5495 11.2422 15.7988 11.0136C16.0481 10.7851 16.1882 10.4751 16.1882 10.1519C16.1882 9.82866 16.0481 9.51868 15.7988 9.29013C15.5495 9.06159 15.2114 8.93319 14.8588 8.93319C14.5062 8.93319 14.1681 9.06159 13.9188 9.29013C13.6695 9.51868 13.5294 9.82866 13.5294 10.1519C13.5294 10.4751 13.6695 10.7851 13.9188 11.0136C14.1681 11.2422 14.5062 11.3705 14.8588 11.3705ZM5.55608 10.1523C5.55608 9.99229 5.5217 9.83387 5.45492 9.68606C5.38813 9.53825 5.29024 9.40395 5.16683 9.29083C5.04343 9.1777 4.89693 9.08796 4.73569 9.02674C4.57445 8.96552 4.40164 8.934 4.22712 8.934C4.0526 8.934 3.87978 8.96552 3.71855 9.02674C3.55731 9.08796 3.41081 9.1777 3.2874 9.29083C3.16399 9.40395 3.0661 9.53825 2.99932 9.68606C2.93253 9.83387 2.89816 9.99229 2.89816 10.1523C2.89816 10.4754 3.03817 10.7853 3.2874 11.0137C3.53663 11.2422 3.87466 11.3705 4.22712 11.3705C4.57958 11.3705 4.91761 11.2422 5.16683 11.0137C5.41606 10.7853 5.55608 10.4754 5.55608 10.1523Z" fill="#101010"/>
</svg>
