<svg width="26" height="25" viewBox="0 0 26 25" fill="none" xmlns="http://www.w3.org/2000/svg">
<path d="M4.10513 5.42582L0.163696 1.6486L1.88344 0L5.82365 3.77839H24.3482C24.5377 3.77837 24.7245 3.82081 24.8938 3.90231C25.0631 3.98381 25.2101 4.10212 25.3233 4.2478C25.4364 4.39347 25.5124 4.56247 25.5453 4.74132C25.5781 4.92016 25.5669 5.1039 25.5126 5.27786L22.5957 14.5986C22.5206 14.8387 22.3668 15.0492 22.1571 15.1988C21.9473 15.3485 21.6928 15.4293 21.4314 15.4293H6.53586V17.7595H19.9049V20.0896H5.32049C4.99816 20.0896 4.68902 19.9669 4.4611 19.7484C4.23317 19.5299 4.10513 19.2336 4.10513 18.9246V5.42582ZM6.53586 6.10857V13.0991H20.5271L22.7148 6.10857H6.53586ZM5.92817 24.75C5.44467 24.75 4.98097 24.5659 4.63908 24.2381C4.2972 23.9104 4.10513 23.4659 4.10513 23.0024C4.10513 22.5389 4.2972 22.0943 4.63908 21.7666C4.98097 21.4389 5.44467 21.2547 5.92817 21.2547C6.41167 21.2547 6.87537 21.4389 7.21726 21.7666C7.55915 22.0943 7.75122 22.5389 7.75122 23.0024C7.75122 23.4659 7.55915 23.9104 7.21726 24.2381C6.87537 24.5659 6.41167 24.75 5.92817 24.75ZM20.5126 24.75C20.0291 24.75 19.5654 24.5659 19.2235 24.2381C18.8816 23.9104 18.6895 23.4659 18.6895 23.0024C18.6895 22.5389 18.8816 22.0943 19.2235 21.7666C19.5654 21.4389 20.0291 21.2547 20.5126 21.2547C20.9961 21.2547 21.4598 21.4389 21.8016 21.7666C22.1435 22.0943 22.3356 22.5389 22.3356 23.0024C22.3356 23.4659 22.1435 23.9104 21.8016 24.2381C21.4598 24.5659 20.9961 24.75 20.5126 24.75Z" fill="white"/>
</svg>
